<?xml version="1.0" encoding="UTF-8"?>
<!DOCTYPE svg PUBLIC "-//W3C//DTD SVG 1.1//EN" "http://www.w3.org/Graphics/SVG/1.1/DTD/svg11.dtd">
<!-- Creator: CorelDRAW 2021.5 -->
<svg xmlns="http://www.w3.org/2000/svg" xml:space="preserve" width="14.6175in" height="2.93734in" version="1.1" style="shape-rendering:geometricPrecision; text-rendering:geometricPrecision; image-rendering:optimizeQuality; fill-rule:evenodd; clip-rule:evenodd"
viewBox="0 0 24471.74 4917.51"
 xmlns:xlink="http://www.w3.org/1999/xlink"
 xmlns:xodm="http://www.corel.com/coreldraw/odm/2003">
 <defs>
  <style type="text/css">
   <![CDATA[
    .fil2 {fill:white}
    .fil0 {fill:#201F1F}
    .fil1 {fill:white;fill-rule:nonzero}
   ]]>
  </style>
 </defs>
 <g id="Layer_x0020_1">
  <metadata id="CorelCorpID_0Corel-Layer"/>
  <path class="fil0" d="M1808.06 597.11l0 -597.11c7383.61,0 15280.07,0 22663.67,0l0 4917.51c-7583.29,0 -15678.61,-1.15 -23260.78,-1.15l0 -139.51 -753.36 0 0 -726.71 -329.25 -11.77 0 -572.92 -128.35 0 0 -1378.36 892.87 0 0 -106.03 318.09 0 0.78 -1376.33 596.32 -7.62z"/>
  <path class="fil1" d="M8291.05 3632.67l0 -782.61 -782.61 0 0 782.61 782.61 0zm0 -1565.21l0 -782.61 -782.61 0 0 782.61 782.61 0zm-2347.82 2347.82l0 -3913.04 3130.44 0 0 782.61 782.61 0 0 2347.83 -782.61 0 0 782.61 -3130.44 0zm6530.53 -782.61l0 -2347.83 -782.61 0 0 2347.83 782.61 0zm-2347.82 782.61l0 -3913.04 3913.04 0 0 3913.04 -3913.04 0zm6530.53 -782.61l0 -2347.83 -782.61 0 0 2347.83 782.61 0zm-2347.82 782.61l0 -3913.04 3913.04 0 0 3913.04 -3913.04 0zm4182.71 0l0 -3913.04 1565.21 0 0 2347.83 782.61 0 0 -2347.83 1565.22 0 0 3913.04 -1565.22 0 0 -782.61 -782.61 0 0 782.61 -1565.21 0zm4182.71 0l0 -782.61 1284.84 0 0 782.61 -1284.84 0zm0 -1565.21l0 -2347.83 1284.84 0 0 2347.83 -1284.84 0z"/>
  <path class="fil2" d="M2310.3 1099.34l-580.37 0c-12.86,0 -16.74,3.88 -16.74,16.74l0 1367.21 -318.09 0 0 290.19 -518.98 0 0 -184.16 -373.89 0 0 373.89 128.35 0 0 602.69c0,12.86 3.88,16.74 16.74,16.74l312.51 0 0 691.98 753.36 0 0 139.51 3342.7 0 0 -569.21c0,-12.85 3.88,-16.74 16.74,-16.74l558.04 0 0 -2745.58 -580.37 0 0 -580.37 -2740.01 0 0 597.11zm2766.41 665.5l0 714.17 -148.5 0 0 208.59 -417.18 0 0 -208.59 -148.49 0 0 -501.13 229.4 0 0 -213.03 484.77 0zm-1175.15 723.08l0 208.59 -417.18 0 0 -208.59 -148.49 0 0 -714.17 505.58 0 0 208.59 208.59 0 0 505.58 -148.5 0z"/>
 </g>
</svg>
